REM MD5 30c295074fe219434679ba71fbc3250b
FILE "Autumn-Christmas Releases '96 (Europe).bin" BINARY
  TRACK 01 MODE2/2352
    INDEX 01 00:00:00
  TRACK 02 AUDIO
    INDEX 00 16:13:64
    INDEX 01 16:15:64
  TRACK 03 AUDIO
    INDEX 00 21:30:50
    INDEX 01 21:32:50
REM LEADOUT 26:06:17
